<?xml version="1.0" encoding="UTF-8" standalone="no"?>
<!DOCTYPE svg PUBLIC "-//W3C//DTD SVG 1.1//EN" "http://www.w3.org/Graphics/SVG/1.1/DTD/svg11.dtd">
<svg version="1.1" xmlns="http://www.w3.org/2000/svg" xmlns:xlink="http://www.w3.org/1999/xlink" preserveAspectRatio="xMidYMid meet" viewBox="122.02884615384603 71.7644230769231 419.1923076923077 419.1923076923075" width="415.19" height="415.19"><defs><path d="M123.03 487.96L123.03 72.76L538.22 72.76L538.22 487.96L123.03 487.96ZM246.03 285.47L246.03 384.16L308.8 384.16L308.8 384.14L308.79 383.83L308.79 315.36L308.8 315.05L308.82 314.74L308.85 314.43L308.89 314.13L308.94 313.83L309.01 313.53L309.08 313.24L309.17 312.96L309.26 312.68L309.37 312.4L309.48 312.13L309.61 311.87L309.74 311.61L309.89 311.35L310.04 311.11L310.2 310.87L310.37 310.64L310.55 310.41L310.73 310.19L310.93 309.98L311.13 309.78L311.34 309.59L311.55 309.4L311.78 309.22L312 309.05L312.24 308.89L312.48 308.74L312.73 308.6L312.98 308.47L313.24 308.35L313.5 308.24L313.77 308.14L314.05 308.05L314.32 307.97L314.61 307.91L314.89 307.85L315.18 307.81L315.48 307.78L315.77 307.76L316.07 307.75L345.18 307.75L345.48 307.76L345.77 307.78L346.07 307.81L346.36 307.85L346.64 307.91L346.93 307.97L347.2 308.05L347.48 308.14L347.75 308.24L348.01 308.35L348.27 308.47L348.52 308.6L348.77 308.74L349.01 308.89L349.25 309.05L349.47 309.22L349.7 309.4L349.91 309.59L350.12 309.78L350.32 309.98L350.52 310.19L350.7 310.41L350.88 310.64L351.05 310.87L351.21 311.11L351.36 311.35L351.51 311.61L351.64 311.87L351.77 312.13L351.88 312.4L351.99 312.68L352.08 312.96L352.17 313.24L352.24 313.53L352.31 313.83L352.36 314.13L352.4 314.43L352.43 314.74L352.45 315.05L352.46 315.36L352.46 383.83L352.45 384.14L352.45 384.16L415.22 384.16L415.22 285.47L443.41 285.47L415.22 253.75L415.22 179.73L415.21 179.44L415.19 179.15L415.16 178.87L415.12 178.59L415.07 178.31L415.01 178.04L414.94 177.77L414.86 177.5L414.76 177.24L414.66 176.99L414.55 176.74L414.43 176.49L414.3 176.25L414.16 176.02L414.01 175.79L413.86 175.57L413.69 175.35L413.52 175.14L413.34 174.94L413.15 174.75L412.96 174.56L412.75 174.38L412.54 174.21L412.33 174.04L412.11 173.88L411.88 173.74L411.65 173.6L411.41 173.47L411.16 173.35L410.91 173.23L410.65 173.13L410.39 173.04L410.13 172.96L409.86 172.89L409.59 172.82L409.31 172.77L409.03 172.73L408.74 172.7L408.46 172.69L408.17 172.68L379.97 172.68L379.68 172.69L379.39 172.7L379.11 172.73L378.83 172.77L378.55 172.82L378.28 172.89L378.01 172.96L377.74 173.04L377.48 173.13L377.23 173.23L376.98 173.35L376.73 173.47L376.49 173.6L376.26 173.74L376.03 173.88L375.81 174.04L375.59 174.21L375.38 174.38L375.18 174.56L374.99 174.75L374.8 174.94L374.62 175.14L374.45 175.35L374.28 175.57L374.13 175.79L373.98 176.02L373.84 176.25L373.71 176.49L373.59 176.74L373.48 176.99L373.37 177.24L373.28 177.5L373.2 177.77L373.13 178.04L373.06 178.31L373.01 178.59L372.97 178.87L372.94 179.15L372.93 179.44L372.92 179.73L372.92 206.16L330.62 158.58L217.84 285.47L246.03 285.47Z" id="h1qf3bpAz"></path></defs><g><g><use xlink:href="#h1qf3bpAz" opacity="1" fill="#c8bfc3" fill-opacity="1"></use></g></g></svg>